<mxfile host="app.diagrams.net" modified="2023-04-15T04:07:36.418Z" agent="Mozilla/5.0 (Macintosh; Intel Mac OS X 10_15_7) AppleWebKit/537.36 (KHTML, like Gecko) Chrome/112.0.0.0 Safari/537.36" etag="f0o084xVYd5caenUO8Db" version="21.1.1" type="device">
  <diagram id="C5RBs43oDa-KdzZeNtuy" name="Page-1">
    <mxGraphModel dx="1194" dy="741" grid="1" gridSize="10" guides="1" tooltips="1" connect="1" arrows="1" fold="1" page="1" pageScale="1" pageWidth="827" pageHeight="1169" math="0" shadow="0">
      <root>
        <mxCell id="WIyWlLk6GJQsqaUBKTNV-0" />
        <mxCell id="WIyWlLk6GJQsqaUBKTNV-1" parent="WIyWlLk6GJQsqaUBKTNV-0" />
        <mxCell id="WIyWlLk6GJQsqaUBKTNV-2" value="" style="rounded=0;html=1;jettySize=auto;orthogonalLoop=1;fontSize=11;endArrow=block;endFill=0;endSize=6;strokeWidth=1;shadow=0;labelBackgroundColor=none;edgeStyle=orthogonalEdgeStyle;" parent="WIyWlLk6GJQsqaUBKTNV-1" source="WIyWlLk6GJQsqaUBKTNV-3" target="WIyWlLk6GJQsqaUBKTNV-6" edge="1">
          <mxGeometry relative="1" as="geometry" />
        </mxCell>
        <mxCell id="WIyWlLk6GJQsqaUBKTNV-3" value="화면 진입" style="rounded=1;whiteSpace=wrap;html=1;fontSize=12;glass=0;strokeWidth=1;shadow=0;" parent="WIyWlLk6GJQsqaUBKTNV-1" vertex="1">
          <mxGeometry x="122" y="70" width="120" height="40" as="geometry" />
        </mxCell>
        <mxCell id="WIyWlLk6GJQsqaUBKTNV-4" value="Yes" style="rounded=0;html=1;jettySize=auto;orthogonalLoop=1;fontSize=11;endArrow=block;endFill=0;endSize=6;strokeWidth=1;shadow=0;labelBackgroundColor=none;edgeStyle=orthogonalEdgeStyle;" parent="WIyWlLk6GJQsqaUBKTNV-1" source="WIyWlLk6GJQsqaUBKTNV-6" target="WIyWlLk6GJQsqaUBKTNV-10" edge="1">
          <mxGeometry y="20" relative="1" as="geometry">
            <mxPoint as="offset" />
          </mxGeometry>
        </mxCell>
        <mxCell id="WIyWlLk6GJQsqaUBKTNV-5" value="No" style="edgeStyle=orthogonalEdgeStyle;rounded=0;html=1;jettySize=auto;orthogonalLoop=1;fontSize=11;endArrow=block;endFill=0;endSize=6;strokeWidth=1;shadow=0;labelBackgroundColor=none;" parent="WIyWlLk6GJQsqaUBKTNV-1" source="WIyWlLk6GJQsqaUBKTNV-6" target="WIyWlLk6GJQsqaUBKTNV-7" edge="1">
          <mxGeometry y="10" relative="1" as="geometry">
            <mxPoint as="offset" />
          </mxGeometry>
        </mxCell>
        <mxCell id="WIyWlLk6GJQsqaUBKTNV-6" value="검색 진행?" style="rhombus;whiteSpace=wrap;html=1;shadow=0;fontFamily=Helvetica;fontSize=12;align=center;strokeWidth=1;spacing=6;spacingTop=-4;" parent="WIyWlLk6GJQsqaUBKTNV-1" vertex="1">
          <mxGeometry x="112" y="130" width="140" height="80" as="geometry" />
        </mxCell>
        <mxCell id="WIyWlLk6GJQsqaUBKTNV-7" value="주소, 카테고리 지정" style="rounded=1;whiteSpace=wrap;html=1;fontSize=12;glass=0;strokeWidth=1;shadow=0;" parent="WIyWlLk6GJQsqaUBKTNV-1" vertex="1">
          <mxGeometry x="302" y="150" width="120" height="40" as="geometry" />
        </mxCell>
        <mxCell id="WIyWlLk6GJQsqaUBKTNV-8" value="No" style="rounded=0;html=1;jettySize=auto;orthogonalLoop=1;fontSize=11;endArrow=block;endFill=0;endSize=6;strokeWidth=1;shadow=0;labelBackgroundColor=none;edgeStyle=orthogonalEdgeStyle;" parent="WIyWlLk6GJQsqaUBKTNV-1" source="WIyWlLk6GJQsqaUBKTNV-10" target="WIyWlLk6GJQsqaUBKTNV-11" edge="1">
          <mxGeometry x="0.3333" y="20" relative="1" as="geometry">
            <mxPoint as="offset" />
          </mxGeometry>
        </mxCell>
        <mxCell id="WIyWlLk6GJQsqaUBKTNV-9" value="Yes" style="edgeStyle=orthogonalEdgeStyle;rounded=0;html=1;jettySize=auto;orthogonalLoop=1;fontSize=11;endArrow=block;endFill=0;endSize=6;strokeWidth=1;shadow=0;labelBackgroundColor=none;" parent="WIyWlLk6GJQsqaUBKTNV-1" source="WIyWlLk6GJQsqaUBKTNV-10" target="WIyWlLk6GJQsqaUBKTNV-12" edge="1">
          <mxGeometry y="10" relative="1" as="geometry">
            <mxPoint as="offset" />
          </mxGeometry>
        </mxCell>
        <mxCell id="WIyWlLk6GJQsqaUBKTNV-10" value="검색 결과가 있는가?" style="rhombus;whiteSpace=wrap;html=1;shadow=0;fontFamily=Helvetica;fontSize=12;align=center;strokeWidth=1;spacing=6;spacingTop=-4;" parent="WIyWlLk6GJQsqaUBKTNV-1" vertex="1">
          <mxGeometry x="112" y="250" width="140" height="80" as="geometry" />
        </mxCell>
        <mxCell id="WIyWlLk6GJQsqaUBKTNV-11" value="빈 리스트 출력" style="rounded=1;whiteSpace=wrap;html=1;fontSize=12;glass=0;strokeWidth=1;shadow=0;" parent="WIyWlLk6GJQsqaUBKTNV-1" vertex="1">
          <mxGeometry x="122" y="360" width="120" height="40" as="geometry" />
        </mxCell>
        <mxCell id="wpI9kbviArIZ1szSz_9z-4" style="edgeStyle=orthogonalEdgeStyle;rounded=0;orthogonalLoop=1;jettySize=auto;html=1;entryX=0.5;entryY=0;entryDx=0;entryDy=0;endArrow=block;endFill=0;endSize=6;" edge="1" parent="WIyWlLk6GJQsqaUBKTNV-1" source="WIyWlLk6GJQsqaUBKTNV-12" target="wpI9kbviArIZ1szSz_9z-9">
          <mxGeometry relative="1" as="geometry" />
        </mxCell>
        <mxCell id="WIyWlLk6GJQsqaUBKTNV-12" value="장소 리스트 출력 + 장소 좌표 지도에 표시" style="rounded=1;whiteSpace=wrap;html=1;fontSize=12;glass=0;strokeWidth=1;shadow=0;" parent="WIyWlLk6GJQsqaUBKTNV-1" vertex="1">
          <mxGeometry x="302" y="270" width="220" height="40" as="geometry" />
        </mxCell>
        <mxCell id="wpI9kbviArIZ1szSz_9z-20" style="edgeStyle=orthogonalEdgeStyle;rounded=0;orthogonalLoop=1;jettySize=auto;html=1;" edge="1" parent="WIyWlLk6GJQsqaUBKTNV-1" source="wpI9kbviArIZ1szSz_9z-8" target="wpI9kbviArIZ1szSz_9z-19">
          <mxGeometry relative="1" as="geometry" />
        </mxCell>
        <mxCell id="wpI9kbviArIZ1szSz_9z-26" style="edgeStyle=orthogonalEdgeStyle;rounded=0;orthogonalLoop=1;jettySize=auto;html=1;entryX=0.5;entryY=0;entryDx=0;entryDy=0;" edge="1" parent="WIyWlLk6GJQsqaUBKTNV-1" source="wpI9kbviArIZ1szSz_9z-8" target="wpI9kbviArIZ1szSz_9z-24">
          <mxGeometry relative="1" as="geometry" />
        </mxCell>
        <mxCell id="wpI9kbviArIZ1szSz_9z-27" style="edgeStyle=orthogonalEdgeStyle;rounded=0;orthogonalLoop=1;jettySize=auto;html=1;entryX=0.5;entryY=0;entryDx=0;entryDy=0;" edge="1" parent="WIyWlLk6GJQsqaUBKTNV-1" source="wpI9kbviArIZ1szSz_9z-8" target="wpI9kbviArIZ1szSz_9z-22">
          <mxGeometry relative="1" as="geometry" />
        </mxCell>
        <mxCell id="wpI9kbviArIZ1szSz_9z-29" style="edgeStyle=orthogonalEdgeStyle;rounded=0;orthogonalLoop=1;jettySize=auto;html=1;entryX=0.5;entryY=0;entryDx=0;entryDy=0;exitX=0.5;exitY=1;exitDx=0;exitDy=0;" edge="1" parent="WIyWlLk6GJQsqaUBKTNV-1" source="wpI9kbviArIZ1szSz_9z-8" target="wpI9kbviArIZ1szSz_9z-28">
          <mxGeometry relative="1" as="geometry" />
        </mxCell>
        <mxCell id="wpI9kbviArIZ1szSz_9z-8" value="장소 상세 정보, 북마크 여부 표시" style="rounded=1;whiteSpace=wrap;html=1;fontSize=12;glass=0;strokeWidth=1;shadow=0;" vertex="1" parent="WIyWlLk6GJQsqaUBKTNV-1">
          <mxGeometry x="302" y="450" width="220" height="40" as="geometry" />
        </mxCell>
        <mxCell id="wpI9kbviArIZ1szSz_9z-16" style="edgeStyle=orthogonalEdgeStyle;rounded=0;orthogonalLoop=1;jettySize=auto;html=1;entryX=0.5;entryY=0;entryDx=0;entryDy=0;endArrow=block;endFill=0;" edge="1" parent="WIyWlLk6GJQsqaUBKTNV-1" source="wpI9kbviArIZ1szSz_9z-9" target="wpI9kbviArIZ1szSz_9z-8">
          <mxGeometry relative="1" as="geometry" />
        </mxCell>
        <mxCell id="wpI9kbviArIZ1szSz_9z-9" value="장소 리스트 중에서 장소 썸네일 1건 클릭" style="rounded=1;whiteSpace=wrap;html=1;fontSize=12;glass=0;strokeWidth=1;shadow=0;" vertex="1" parent="WIyWlLk6GJQsqaUBKTNV-1">
          <mxGeometry x="302" y="360" width="220" height="40" as="geometry" />
        </mxCell>
        <mxCell id="wpI9kbviArIZ1szSz_9z-21" style="edgeStyle=orthogonalEdgeStyle;rounded=0;orthogonalLoop=1;jettySize=auto;html=1;entryX=1;entryY=0.5;entryDx=0;entryDy=0;" edge="1" parent="WIyWlLk6GJQsqaUBKTNV-1" source="wpI9kbviArIZ1szSz_9z-19" target="WIyWlLk6GJQsqaUBKTNV-12">
          <mxGeometry relative="1" as="geometry">
            <Array as="points">
              <mxPoint x="652" y="290" />
            </Array>
          </mxGeometry>
        </mxCell>
        <mxCell id="wpI9kbviArIZ1szSz_9z-19" value="장소 리스트로 돌아가기" style="rounded=1;whiteSpace=wrap;html=1;fontSize=12;glass=0;strokeWidth=1;shadow=0;" vertex="1" parent="WIyWlLk6GJQsqaUBKTNV-1">
          <mxGeometry x="592" y="450" width="120" height="40" as="geometry" />
        </mxCell>
        <mxCell id="wpI9kbviArIZ1szSz_9z-22" value="장소 URL (카카오)&lt;br&gt;새 창 띄우기" style="rounded=1;whiteSpace=wrap;html=1;fontSize=12;glass=0;strokeWidth=1;shadow=0;" vertex="1" parent="WIyWlLk6GJQsqaUBKTNV-1">
          <mxGeometry x="202" y="550" width="120" height="40" as="geometry" />
        </mxCell>
        <mxCell id="wpI9kbviArIZ1szSz_9z-33" style="edgeStyle=orthogonalEdgeStyle;rounded=0;orthogonalLoop=1;jettySize=auto;html=1;entryX=0.5;entryY=0;entryDx=0;entryDy=0;" edge="1" parent="WIyWlLk6GJQsqaUBKTNV-1" source="wpI9kbviArIZ1szSz_9z-24" target="wpI9kbviArIZ1szSz_9z-31">
          <mxGeometry relative="1" as="geometry" />
        </mxCell>
        <mxCell id="wpI9kbviArIZ1szSz_9z-42" value="Yes" style="edgeLabel;html=1;align=center;verticalAlign=middle;resizable=0;points=[];" vertex="1" connectable="0" parent="wpI9kbviArIZ1szSz_9z-33">
          <mxGeometry x="-0.1778" y="4" relative="1" as="geometry">
            <mxPoint x="14" y="1" as="offset" />
          </mxGeometry>
        </mxCell>
        <mxCell id="wpI9kbviArIZ1szSz_9z-24" value="해당 장소의 리뷰가&lt;br&gt;존재하는가?" style="rhombus;whiteSpace=wrap;html=1;shadow=0;fontFamily=Helvetica;fontSize=12;align=center;strokeWidth=1;spacing=6;spacingTop=-4;" vertex="1" parent="WIyWlLk6GJQsqaUBKTNV-1">
          <mxGeometry x="342" y="550" width="140" height="80" as="geometry" />
        </mxCell>
        <mxCell id="wpI9kbviArIZ1szSz_9z-34" style="edgeStyle=orthogonalEdgeStyle;rounded=0;orthogonalLoop=1;jettySize=auto;html=1;entryX=0.5;entryY=0;entryDx=0;entryDy=0;" edge="1" parent="WIyWlLk6GJQsqaUBKTNV-1" source="wpI9kbviArIZ1szSz_9z-28" target="wpI9kbviArIZ1szSz_9z-32">
          <mxGeometry relative="1" as="geometry" />
        </mxCell>
        <mxCell id="wpI9kbviArIZ1szSz_9z-41" value="Yes" style="edgeLabel;html=1;align=center;verticalAlign=middle;resizable=0;points=[];" vertex="1" connectable="0" parent="wpI9kbviArIZ1szSz_9z-34">
          <mxGeometry x="-0.0444" y="2" relative="1" as="geometry">
            <mxPoint x="16" as="offset" />
          </mxGeometry>
        </mxCell>
        <mxCell id="wpI9kbviArIZ1szSz_9z-28" value="로그인이 되어있는가?" style="rhombus;whiteSpace=wrap;html=1;shadow=0;fontFamily=Helvetica;fontSize=12;align=center;strokeWidth=1;spacing=6;spacingTop=-4;" vertex="1" parent="WIyWlLk6GJQsqaUBKTNV-1">
          <mxGeometry x="512" y="550" width="140" height="80" as="geometry" />
        </mxCell>
        <mxCell id="wpI9kbviArIZ1szSz_9z-39" style="edgeStyle=orthogonalEdgeStyle;rounded=0;orthogonalLoop=1;jettySize=auto;html=1;" edge="1" parent="WIyWlLk6GJQsqaUBKTNV-1" source="wpI9kbviArIZ1szSz_9z-31" target="wpI9kbviArIZ1szSz_9z-37">
          <mxGeometry relative="1" as="geometry" />
        </mxCell>
        <mxCell id="wpI9kbviArIZ1szSz_9z-31" value="리뷰 리스트 출력" style="rounded=1;whiteSpace=wrap;html=1;fontSize=12;glass=0;strokeWidth=1;shadow=0;" vertex="1" parent="WIyWlLk6GJQsqaUBKTNV-1">
          <mxGeometry x="352" y="675" width="120" height="40" as="geometry" />
        </mxCell>
        <mxCell id="wpI9kbviArIZ1szSz_9z-53" style="edgeStyle=orthogonalEdgeStyle;rounded=0;orthogonalLoop=1;jettySize=auto;html=1;" edge="1" parent="WIyWlLk6GJQsqaUBKTNV-1" source="wpI9kbviArIZ1szSz_9z-32" target="wpI9kbviArIZ1szSz_9z-52">
          <mxGeometry relative="1" as="geometry" />
        </mxCell>
        <mxCell id="wpI9kbviArIZ1szSz_9z-32" value="리뷰 작성 폼 표시" style="rounded=1;whiteSpace=wrap;html=1;fontSize=12;glass=0;strokeWidth=1;shadow=0;" vertex="1" parent="WIyWlLk6GJQsqaUBKTNV-1">
          <mxGeometry x="522" y="675" width="120" height="40" as="geometry" />
        </mxCell>
        <mxCell id="wpI9kbviArIZ1szSz_9z-40" style="edgeStyle=orthogonalEdgeStyle;rounded=0;orthogonalLoop=1;jettySize=auto;html=1;entryX=0.5;entryY=0;entryDx=0;entryDy=0;" edge="1" parent="WIyWlLk6GJQsqaUBKTNV-1" source="wpI9kbviArIZ1szSz_9z-37" target="wpI9kbviArIZ1szSz_9z-38">
          <mxGeometry relative="1" as="geometry" />
        </mxCell>
        <mxCell id="wpI9kbviArIZ1szSz_9z-43" value="Yes" style="edgeLabel;html=1;align=center;verticalAlign=middle;resizable=0;points=[];" vertex="1" connectable="0" parent="wpI9kbviArIZ1szSz_9z-40">
          <mxGeometry x="-0.275" y="-1" relative="1" as="geometry">
            <mxPoint x="19" as="offset" />
          </mxGeometry>
        </mxCell>
        <mxCell id="wpI9kbviArIZ1szSz_9z-37" value="로그인한 유저가&lt;br&gt;작성한 리뷰인가?" style="rhombus;whiteSpace=wrap;html=1;shadow=0;fontFamily=Helvetica;fontSize=12;align=center;strokeWidth=1;spacing=6;spacingTop=-4;" vertex="1" parent="WIyWlLk6GJQsqaUBKTNV-1">
          <mxGeometry x="342" y="750" width="140" height="80" as="geometry" />
        </mxCell>
        <mxCell id="wpI9kbviArIZ1szSz_9z-44" style="edgeStyle=orthogonalEdgeStyle;rounded=0;orthogonalLoop=1;jettySize=auto;html=1;entryX=0.5;entryY=0;entryDx=0;entryDy=0;" edge="1" parent="WIyWlLk6GJQsqaUBKTNV-1" source="wpI9kbviArIZ1szSz_9z-38" target="wpI9kbviArIZ1szSz_9z-45">
          <mxGeometry relative="1" as="geometry">
            <mxPoint x="412" y="960" as="targetPoint" />
          </mxGeometry>
        </mxCell>
        <mxCell id="wpI9kbviArIZ1szSz_9z-56" style="edgeStyle=orthogonalEdgeStyle;rounded=0;orthogonalLoop=1;jettySize=auto;html=1;entryX=0;entryY=0.5;entryDx=0;entryDy=0;" edge="1" parent="WIyWlLk6GJQsqaUBKTNV-1" source="wpI9kbviArIZ1szSz_9z-38" target="wpI9kbviArIZ1szSz_9z-55">
          <mxGeometry relative="1" as="geometry" />
        </mxCell>
        <mxCell id="wpI9kbviArIZ1szSz_9z-38" value="리뷰 수정 / 삭제&lt;br&gt;버튼 표시" style="rounded=1;whiteSpace=wrap;html=1;fontSize=12;glass=0;strokeWidth=1;shadow=0;" vertex="1" parent="WIyWlLk6GJQsqaUBKTNV-1">
          <mxGeometry x="352" y="870" width="120" height="40" as="geometry" />
        </mxCell>
        <mxCell id="wpI9kbviArIZ1szSz_9z-50" style="edgeStyle=orthogonalEdgeStyle;rounded=0;orthogonalLoop=1;jettySize=auto;html=1;entryX=0.5;entryY=0;entryDx=0;entryDy=0;" edge="1" parent="WIyWlLk6GJQsqaUBKTNV-1" source="wpI9kbviArIZ1szSz_9z-45" target="wpI9kbviArIZ1szSz_9z-47">
          <mxGeometry relative="1" as="geometry" />
        </mxCell>
        <mxCell id="wpI9kbviArIZ1szSz_9z-45" value="리뷰 수정 버튼 클릭" style="rounded=1;whiteSpace=wrap;html=1;fontSize=12;glass=0;strokeWidth=1;shadow=0;" vertex="1" parent="WIyWlLk6GJQsqaUBKTNV-1">
          <mxGeometry x="352" y="950" width="120" height="40" as="geometry" />
        </mxCell>
        <mxCell id="wpI9kbviArIZ1szSz_9z-51" style="edgeStyle=orthogonalEdgeStyle;rounded=0;orthogonalLoop=1;jettySize=auto;html=1;entryX=0.5;entryY=0;entryDx=0;entryDy=0;" edge="1" parent="WIyWlLk6GJQsqaUBKTNV-1" source="wpI9kbviArIZ1szSz_9z-47" target="wpI9kbviArIZ1szSz_9z-48">
          <mxGeometry relative="1" as="geometry" />
        </mxCell>
        <mxCell id="wpI9kbviArIZ1szSz_9z-47" value="리뷰 수정 폼 표시" style="rounded=1;whiteSpace=wrap;html=1;fontSize=12;glass=0;strokeWidth=1;shadow=0;" vertex="1" parent="WIyWlLk6GJQsqaUBKTNV-1">
          <mxGeometry x="352" y="1030" width="120" height="40" as="geometry" />
        </mxCell>
        <mxCell id="wpI9kbviArIZ1szSz_9z-49" style="edgeStyle=elbowEdgeStyle;rounded=0;orthogonalLoop=1;jettySize=auto;html=1;entryX=0;entryY=0.5;entryDx=0;entryDy=0;" edge="1" parent="WIyWlLk6GJQsqaUBKTNV-1" source="wpI9kbviArIZ1szSz_9z-48" target="wpI9kbviArIZ1szSz_9z-31">
          <mxGeometry relative="1" as="geometry">
            <Array as="points">
              <mxPoint x="310" y="920" />
            </Array>
          </mxGeometry>
        </mxCell>
        <mxCell id="wpI9kbviArIZ1szSz_9z-48" value="리뷰 수정" style="rounded=1;whiteSpace=wrap;html=1;fontSize=12;glass=0;strokeWidth=1;shadow=0;" vertex="1" parent="WIyWlLk6GJQsqaUBKTNV-1">
          <mxGeometry x="352" y="1110" width="120" height="40" as="geometry" />
        </mxCell>
        <mxCell id="wpI9kbviArIZ1szSz_9z-54" style="edgeStyle=orthogonalEdgeStyle;rounded=0;orthogonalLoop=1;jettySize=auto;html=1;entryX=1;entryY=0.5;entryDx=0;entryDy=0;" edge="1" parent="WIyWlLk6GJQsqaUBKTNV-1" source="wpI9kbviArIZ1szSz_9z-52" target="wpI9kbviArIZ1szSz_9z-31">
          <mxGeometry relative="1" as="geometry" />
        </mxCell>
        <mxCell id="wpI9kbviArIZ1szSz_9z-52" value="리뷰 작성" style="rounded=1;whiteSpace=wrap;html=1;fontSize=12;glass=0;strokeWidth=1;shadow=0;" vertex="1" parent="WIyWlLk6GJQsqaUBKTNV-1">
          <mxGeometry x="522" y="750" width="120" height="40" as="geometry" />
        </mxCell>
        <mxCell id="wpI9kbviArIZ1szSz_9z-57" style="edgeStyle=orthogonalEdgeStyle;rounded=0;orthogonalLoop=1;jettySize=auto;html=1;entryX=1;entryY=0.5;entryDx=0;entryDy=0;" edge="1" parent="WIyWlLk6GJQsqaUBKTNV-1" source="wpI9kbviArIZ1szSz_9z-55" target="wpI9kbviArIZ1szSz_9z-31">
          <mxGeometry relative="1" as="geometry">
            <Array as="points">
              <mxPoint x="582" y="820" />
              <mxPoint x="490" y="820" />
              <mxPoint x="490" y="695" />
            </Array>
          </mxGeometry>
        </mxCell>
        <mxCell id="wpI9kbviArIZ1szSz_9z-55" value="리뷰 삭제" style="rounded=1;whiteSpace=wrap;html=1;fontSize=12;glass=0;strokeWidth=1;shadow=0;" vertex="1" parent="WIyWlLk6GJQsqaUBKTNV-1">
          <mxGeometry x="522" y="870" width="120" height="40" as="geometry" />
        </mxCell>
        <mxCell id="wpI9kbviArIZ1szSz_9z-58" value="&lt;h1&gt;장소 검색 ~ 리뷰 화면&lt;/h1&gt;" style="text;html=1;strokeColor=none;fillColor=none;spacing=5;spacingTop=-20;whiteSpace=wrap;overflow=hidden;rounded=0;" vertex="1" parent="WIyWlLk6GJQsqaUBKTNV-1">
          <mxGeometry x="20" y="20" width="273" height="40" as="geometry" />
        </mxCell>
      </root>
    </mxGraphModel>
  </diagram>
</mxfile>
